<svg version="1.1" id="Layer_1"
    xmlns="http://www.w3.org/2000/svg"
    xmlns:xlink="http://www.w3.org/1999/xlink" x="0px" y="0px" width="100%" viewBox="0 0 512 512" enable-background="new 0 0 512 512" xml:space="preserve">
    <path fill="#000000" opacity="1.000000" stroke="none" d="
M0.999998,486.000000 
	C1.000000,324.379730 1.000000,162.759476 1.000000,1.069611 
	C171.571243,1.069611 342.142517,1.069611 513.000000,1.069611 
	C513.000000,162.358124 513.000000,323.716400 512.766724,485.879761 
	C508.291870,481.137787 502.765350,479.433167 495.816956,479.865387 
	C486.915894,480.419067 477.953369,479.984772 469.009644,479.510010 
	C469.001526,394.109711 469.002106,309.175598 468.993652,224.241501 
	C468.993469,222.413635 468.889740,220.585770 469.049805,218.499237 
	C472.943939,214.561890 477.153931,211.275177 480.207672,207.135544 
	C492.330231,190.702408 495.902771,172.128601 487.784607,153.496368 
	C474.734528,123.544868 459.921661,94.361420 445.927551,64.399246 
	C446.001465,45.023956 446.001465,26.102871 446.001465,7.356770 
	C319.593475,7.356770 193.863998,7.356770 67.979927,7.356770 
	C67.979927,25.560635 68.016418,43.387539 67.930588,61.213856 
	C67.920624,63.282574 67.597900,65.504997 66.790222,67.385605 
	C64.353859,73.058487 61.659931,78.623642 58.971130,84.184715 
	C49.689514,103.381348 40.622089,122.687607 30.977215,141.700562 
	C23.742086,155.963181 20.029198,170.482254 23.989857,186.406372 
	C27.297958,199.706833 34.154076,210.604843 45.091393,219.302795 
	C45.003670,306.509644 44.993515,393.242615 44.515846,479.986023 
	C35.790695,479.998260 27.524895,480.227295 19.277975,479.930969 
	C12.524246,479.688232 6.201796,479.929596 1.979692,486.298340 
	C1.925774,486.379669 1.338389,486.107300 0.999998,486.000000 
z"/>
    <path fill="#748494" opacity="1.000000" stroke="none" d="
M469.017334,479.976196 
	C477.953369,479.984772 486.915894,480.419067 495.816956,479.865387 
	C502.765350,479.433167 508.291870,481.137787 512.766724,486.342407 
	C513.000000,490.689240 513.000000,495.378510 512.764404,500.201141 
	C507.576447,506.205078 501.074982,507.095154 493.780518,507.089661 
	C334.821991,506.969910 175.863327,506.989014 16.904713,507.038391 
	C11.520840,507.040070 6.816310,505.924591 3.129420,501.729065 
	C2.699636,501.239990 1.723071,501.231354 0.999999,501.000000 
	C1.000000,496.310760 1.000000,491.621490 0.999998,486.466125 
	C1.338389,486.107300 1.925774,486.379669 1.979692,486.298340 
	C6.201796,479.929596 12.524246,479.688232 19.277975,479.930969 
	C27.524895,480.227295 35.790695,479.998260 44.984577,480.018402 
	C122.082855,480.061981 198.244888,480.084320 274.406921,480.096527 
	C275.236145,480.096649 276.065369,479.965240 277.368530,479.939636 
	C307.303131,480.013885 336.763794,480.073486 366.224487,480.061279 
	C381.201660,480.055054 396.178802,479.919586 411.609009,479.921936 
	C431.047180,479.993011 450.032257,479.984619 469.017334,479.976196 
z"/>
    <path fill="#000000" opacity="1.000000" stroke="none" d="
M0.999999,501.479187 
	C1.723071,501.231354 2.699636,501.239990 3.129420,501.729065 
	C6.816310,505.924591 11.520840,507.040070 16.904713,507.038391 
	C175.863327,506.989014 334.821991,506.969910 493.780518,507.089661 
	C501.074982,507.095154 507.576447,506.205078 512.764404,500.667267 
	C513.000000,504.996582 513.000000,508.993164 513.000000,512.974487 
	C342.333344,512.974487 171.666656,512.974487 1.000000,512.974487 
	C1.000000,509.285400 1.000000,505.621887 0.999999,501.479187 
z"/>
    <path fill="#E3EDF0" opacity="1.000000" stroke="none" d="
M469.009644,479.510010 
	C450.032257,479.984619 431.047180,479.993011 411.634583,479.464447 
	C411.197449,441.787262 411.564484,404.642029 411.077362,367.508026 
	C410.537292,326.336548 371.557953,295.544159 331.176788,303.743408 
	C299.120636,310.252258 277.032684,337.069183 276.920929,369.973175 
	C276.796570,406.613464 276.893799,443.254547 276.894592,479.895264 
	C276.065369,479.965240 275.236145,480.096649 274.406921,480.096527 
	C198.244888,480.084320 122.082855,480.061981 45.452095,480.007996 
	C44.993515,393.242615 45.003670,306.509644 45.435520,219.371399 
	C46.164116,219.086945 46.510681,219.151596 46.772293,219.336456 
	C78.818283,241.981461 125.508408,225.556534 134.315399,183.795593 
	C135.611908,177.647736 137.539062,171.632889 139.131683,166.139282 
	C139.111176,168.384781 139.115112,170.047974 139.158325,171.710129 
	C139.950974,202.212692 163.819870,227.232422 194.059479,229.263809 
	C225.658844,231.386520 251.335663,209.843567 256.794189,177.142059 
	C257.296875,178.802383 257.723206,180.061707 257.987396,181.354202 
	C263.849518,210.035965 288.737518,230.330368 317.069611,229.512100 
	C346.700928,228.656342 370.233643,207.303497 374.316559,177.570312 
	C374.806061,174.005798 375.306610,170.442795 375.864197,167.288483 
	C377.650299,174.806320 379.114502,181.989777 381.141876,189.010605 
	C391.420197,224.604538 433.003754,240.555588 464.474426,221.089157 
	C465.873199,220.223938 467.378571,219.531052 468.834320,218.757904 
	C468.889740,220.585770 468.993469,222.413635 468.993652,224.241501 
	C469.002106,309.175598 469.001526,394.109711 469.009644,479.510010 
M219.191025,349.004791 
	C219.216537,330.513885 219.159119,312.022217 219.329285,293.532654 
	C219.368912,289.226044 217.829971,287.507782 213.496124,287.699066 
	C208.175720,287.933838 202.836868,287.747681 197.505981,287.747772 
	C168.019485,287.748413 138.532928,287.781891 109.046600,287.713196 
	C105.220421,287.704285 102.734673,288.233612 102.794197,293.054749 
	C103.028618,312.041809 102.974098,331.032410 102.878090,350.946136 
	C102.878090,370.837891 102.878090,390.729645 102.878090,410.616821 
	C142.097855,410.616821 180.470825,410.616821 219.072403,410.616821 
	C219.072403,390.134827 219.072403,370.030975 219.191025,349.004791 
z"/>
    <path fill="#F7746C" opacity="1.000000" stroke="none" d="
M375.802063,166.879105 
	C375.306610,170.442795 374.806061,174.005798 374.316559,177.570312 
	C370.233643,207.303497 346.700928,228.656342 317.069611,229.512100 
	C288.737518,230.330368 263.849518,210.035965 257.987396,181.354202 
	C257.723206,180.061707 257.296875,178.802383 256.879761,176.891113 
	C256.867157,140.785202 256.891235,105.315697 257.018097,69.846550 
	C257.031433,66.108482 255.435028,64.935959 251.901932,64.945183 
	C223.757309,65.018684 195.612366,65.011375 167.467667,64.960060 
	C164.299637,64.954285 162.644012,66.146675 161.898407,69.329506 
	C154.381317,101.418663 146.763763,133.484268 139.174438,165.556503 
	C137.539062,171.632889 135.611908,177.647736 134.315399,183.795593 
	C125.508408,225.556534 78.818283,241.981461 46.772293,219.336456 
	C46.510681,219.151596 46.164116,219.086945 45.513084,218.897552 
	C34.154076,210.604843 27.297958,199.706833 23.989857,186.406372 
	C20.029198,170.482254 23.742086,155.963181 30.977215,141.700562 
	C40.622089,122.687607 49.689514,103.381348 58.971130,84.184715 
	C61.659931,78.623642 64.353859,73.058487 66.790222,67.385605 
	C67.597900,65.504997 67.920624,63.282574 67.930588,61.213856 
	C68.016418,43.387539 67.979927,25.560635 67.979927,7.356770 
	C193.863998,7.356770 319.593475,7.356770 446.001465,7.356770 
	C446.001465,26.102871 446.001465,45.023956 445.468475,64.425079 
	C416.290100,64.927742 387.644714,64.943748 358.999329,64.977570 
	C351.664246,64.986229 351.402893,65.319016 353.071594,72.295410 
	C358.686951,95.771561 364.308441,119.246231 369.940857,142.718277 
	C371.874573,150.776703 373.847229,158.825760 375.802063,166.879105 
z"/>
    <path fill="#F6B94C" opacity="1.000000" stroke="none" d="
M375.864227,167.288483 
	C373.847229,158.825760 371.874573,150.776703 369.940857,142.718277 
	C364.308441,119.246231 358.686951,95.771561 353.071594,72.295410 
	C351.402893,65.319016 351.664246,64.986229 358.999329,64.977570 
	C387.644714,64.943748 416.290100,64.927742 445.394562,64.879272 
	C459.921661,94.361420 474.734528,123.544868 487.784607,153.496368 
	C495.902771,172.128601 492.330231,190.702408 480.207672,207.135544 
	C477.153931,211.275177 472.943939,214.561890 469.049805,218.499222 
	C467.378571,219.531052 465.873199,220.223938 464.474426,221.089157 
	C433.003754,240.555588 391.420197,224.604538 381.141876,189.010605 
	C379.114502,181.989777 377.650299,174.806320 375.864227,167.288483 
z"/>
    <path fill="#A3B5BE" opacity="1.000000" stroke="none" d="
M277.368530,479.939636 
	C276.893799,443.254547 276.796570,406.613464 276.920929,369.973175 
	C277.032684,337.069183 299.120636,310.252258 331.176788,303.743408 
	C371.557953,295.544159 410.537292,326.336548 411.077362,367.508026 
	C411.564484,404.642029 411.197449,441.787262 411.181519,479.385010 
	C396.178802,479.919586 381.201660,480.055054 366.224487,480.061279 
	C336.763794,480.073486 307.303131,480.013885 277.368530,479.939636 
M373.005646,400.725677 
	C371.397217,392.583923 365.437347,388.002045 358.351715,389.459839 
	C351.958649,390.775146 347.556671,396.530579 348.143280,402.807037 
	C348.740479,409.197266 354.049713,414.058655 360.497864,414.119446 
	C367.651093,414.186890 372.289825,409.539246 373.005646,400.725677 
z"/>
    <path fill="#F6B94C" opacity="1.000000" stroke="none" d="
M139.131699,166.139282 
	C146.763763,133.484268 154.381317,101.418663 161.898407,69.329506 
	C162.644012,66.146675 164.299637,64.954285 167.467667,64.960060 
	C195.612366,65.011375 223.757309,65.018684 251.901932,64.945183 
	C255.435028,64.935959 257.031433,66.108482 257.018097,69.846550 
	C256.891235,105.315697 256.867157,140.785202 256.727936,176.505569 
	C251.335663,209.843567 225.658844,231.386520 194.059479,229.263809 
	C163.819870,227.232422 139.950974,202.212692 139.158325,171.710129 
	C139.115112,170.047974 139.111176,168.384781 139.131699,166.139282 
z"/>
    <path fill="#A3B5BE" opacity="1.000000" stroke="none" d="
M103.026817,350.021729 
	C102.974098,331.032410 103.028618,312.041809 102.794197,293.054749 
	C102.734673,288.233612 105.220421,287.704285 109.046600,287.713196 
	C138.532928,287.781891 168.019485,287.748413 197.505981,287.747772 
	C202.836868,287.747681 208.175720,287.933838 213.496124,287.699066 
	C217.829971,287.507782 219.368912,289.226044 219.329285,293.532654 
	C219.159119,312.022217 219.216537,330.513885 218.658447,349.487457 
	C179.759521,349.987305 141.393173,350.004517 103.026817,350.021729 
z"/>
    <path fill="#738394" opacity="1.000000" stroke="none" d="
M102.952454,350.483948 
	C141.393173,350.004517 179.759521,349.987305 218.599136,349.948639 
	C219.072403,370.030975 219.072403,390.134827 219.072403,410.616821 
	C180.470825,410.616821 142.097855,410.616821 102.878090,410.616821 
	C102.878090,390.729645 102.878090,370.837891 102.952454,350.483948 
z"/>
    <path fill="#FDFEFE" opacity="1.000000" stroke="none" d="
M373.022705,401.139557 
	C372.289825,409.539246 367.651093,414.186890 360.497864,414.119446 
	C354.049713,414.058655 348.740479,409.197266 348.143280,402.807037 
	C347.556671,396.530579 351.958649,390.775146 358.351715,389.459839 
	C365.437347,388.002045 371.397217,392.583923 373.022705,401.139557 
z"/>
</svg>